<svg xmlns="http://www.w3.org/2000/svg" viewBox="0 0 512 512" fill="none">
  <defs>
    <linearGradient id="skin" x1="176" y1="120" x2="344" y2="372" gradientUnits="userSpaceOnUse">
      <stop stop-color="#FFDFA7" />
      <stop offset="1" stop-color="#F3BE6B" />
    </linearGradient>
    <linearGradient id="shirt" x1="150" y1="274" x2="364" y2="472" gradientUnits="userSpaceOnUse">
      <stop stop-color="#4A8AE8" />
      <stop offset="1" stop-color="#2158B0" />
    </linearGradient>
    <linearGradient id="screen" x1="83" y1="235" x2="207" y2="368" gradientUnits="userSpaceOnUse">
      <stop stop-color="#7FD5FF" />
      <stop offset="1" stop-color="#DDF6FF" />
    </linearGradient>
    <linearGradient id="shadow" x1="256" y1="398" x2="256" y2="474" gradientUnits="userSpaceOnUse">
      <stop stop-color="#000000" stop-opacity="0.18" />
      <stop offset="1" stop-color="#000000" stop-opacity="0" />
    </linearGradient>
  </defs>

  <rect width="512" height="512" fill="#FFFFFF" />
  <ellipse cx="256" cy="447" rx="162" ry="14" fill="url(#shadow)" />

  <path d="M109 285c0-11 9-20 20-20h95c11 0 20 9 20 20v86H109v-86Z" fill="#1F4F9D" />
  <path d="M118 278c0-6 5-11 11-11h79c6 0 11 5 11 11v72H118v-72Z" fill="url(#screen)" />
  <path d="M138 297h60" stroke="#5BAAE6" stroke-width="8" stroke-linecap="round" />
  <path d="M138 318h86" stroke="#FFFFFF" stroke-width="8" stroke-linecap="round" />
  <path d="M138 338h76" stroke="#FFFFFF" stroke-width="8" stroke-linecap="round" />
  <path d="M138 358h47" stroke="#FFFFFF" stroke-width="8" stroke-linecap="round" />

  <path d="M124 368h110l18 83H145l-21-83Z" fill="#16529F" />
  <path d="M144 368h43l14 83h-36l-21-83Z" fill="#2C6CC1" opacity=".45" />

  <path d="M202 221c0-60 46-110 103-110 57 0 103 50 103 110v33c0 57-46 104-103 104-57 0-103-47-103-104v-33Z" fill="url(#skin)" />
  <path d="M207 205c0-57 40-95 98-95 56 0 98 38 98 95v13c0 10-8 18-18 18H227c-11 0-20-9-20-20v-11Z" fill="#2D345E" />
  <path d="M219 176c7-20 27-29 53-29h35c26 0 46 9 53 29 3 8-2 17-10 17H229c-9 0-14-9-10-17Z" fill="#4A5177" opacity=".55" />
  <path d="M187 230c0-15 11-27 25-27h4c14 0 25 12 25 27v17c0 15-11 27-25 27h-4c-14 0-25-12-25-27v-17Z" fill="url(#skin)" />
  <path d="M371 230c0-15 11-27 25-27h4c14 0 25 12 25 27v17c0 15-11 27-25 27h-4c-14 0-25-12-25-27v-17Z" fill="url(#skin)" />
  <path d="M260 298c6-5 15-5 21 0 7 6 8 16 2 23-4 4-6 10-6 16 0 11 9 20 20 20" stroke="#7A4A13" stroke-width="8" stroke-linecap="round" stroke-linejoin="round" />
  <path d="M220 308c-7 0-13 6-13 13 0 7 6 13 13 13" stroke="#7A4A13" stroke-width="8" stroke-linecap="round" />
  <circle cx="232" cy="312" r="42" stroke="#5F4AC7" stroke-width="12" />
  <circle cx="304" cy="312" r="42" stroke="#5F4AC7" stroke-width="12" />
  <path d="M274 314h-15" stroke="#5F4AC7" stroke-width="12" stroke-linecap="round" />
  <ellipse cx="232" cy="315" rx="13" ry="18" fill="#1B235B" />
  <ellipse cx="304" cy="315" rx="13" ry="18" fill="#1B235B" />

  <path d="M211 239c2-8 11-14 20-14h18" stroke="#182257" stroke-width="10" stroke-linecap="round" />
  <path d="M353 239c-2-8-11-14-20-14h-18" stroke="#182257" stroke-width="10" stroke-linecap="round" />
  <path d="M207 250c-6 0-11-5-11-11v-4" stroke="#182257" stroke-width="10" stroke-linecap="round" />
  <path d="M359 250c6 0 11-5 11-11v-4" stroke="#182257" stroke-width="10" stroke-linecap="round" />

  <path d="M241 375c0-13 11-24 24-24h27v12c0 18-14 32-32 32h-7c-7 0-12-5-12-12v-8Z" fill="#F4C06C" />
  <path d="M311 373c0-10 8-18 18-18h74c7 0 13 6 13 13v4h-105Z" fill="#244F95" />
  <path d="M246 391c8-13 18-20 31-20" stroke="#7A4A13" stroke-width="9" stroke-linecap="round" />
  <path d="M275 399c8-11 18-18 31-18" stroke="#7A4A13" stroke-width="9" stroke-linecap="round" />
  <path d="M300 393c7-8 15-12 24-12" stroke="#7A4A13" stroke-width="9" stroke-linecap="round" />

  <path d="M190 379c18-46 61-76 108-76h54c24 0 46 11 61 30l25 31v106H160V401c0-8 1-15 3-22 4-1 9-1 27 0Z" fill="url(#shirt)" />
  <path d="M236 332c0 16 12 29 28 29s29-13 29-29" stroke="#17325E" stroke-width="10" stroke-linecap="round" />
  <path d="M223 283 256 332l33-49" stroke="#17325E" stroke-width="10" stroke-linejoin="round" />
  <path d="M199 345c-13 9-26 27-29 54" stroke="#17325E" stroke-width="10" stroke-linecap="round" />
  <path d="M325 340v83" stroke="#17325E" stroke-width="10" stroke-linecap="round" />

  <path d="M247 112c-8 8-12 21-10 35 2 15-4 29-16 37" stroke="#F2B86C" stroke-width="10" stroke-linecap="round" opacity=".8" />
  <path d="M290 111c10 8 15 21 13 35-2 15 4 29 15 37" stroke="#F2B86C" stroke-width="10" stroke-linecap="round" opacity=".8" />

  <path d="M220 195c16-13 40-20 62-20 22 0 45 7 60 20" stroke="#182257" stroke-width="10" stroke-linecap="round" opacity=".55" />
</svg>
